<svg id="sms" xmlns="http://www.w3.org/2000/svg" width="31.25" height="31.25" viewBox="0 0 31.25 31.25">
  <path id="Vector" d="M0,0H31.25V31.25H0Z" fill="none" opacity="0"/>
  <path id="Vector-2" data-name="Vector" d="M19.531,0H6.51C2.6,0,0,1.953,0,6.51v9.115c0,4.557,2.6,6.51,6.51,6.51H19.531c3.906,0,6.51-1.953,6.51-6.51V6.51C26.042,1.953,23.438,0,19.531,0Zm.612,7.93-4.076,3.255a5.027,5.027,0,0,1-6.094,0L5.9,7.93a1,1,0,0,1-.156-1.38.974.974,0,0,1,1.367-.156l4.076,3.255a3.107,3.107,0,0,0,3.659,0l4.076-3.255a.961.961,0,0,1,1.367.156A.988.988,0,0,1,20.143,7.93Z" transform="translate(2.604 4.557)" fill="#fbdf33"/>
</svg>
